<?xml version="1.0" standalone="no"?><!DOCTYPE svg PUBLIC "-//W3C//DTD SVG 1.1//EN" "http://www.w3.org/Graphics/SVG/1.1/DTD/svg11.dtd"><svg t="1580800973005" class="icon" viewBox="0 0 1024 1024" version="1.1" xmlns="http://www.w3.org/2000/svg" p-id="14079" xmlns:xlink="http://www.w3.org/1999/xlink" width="200" height="200"><defs><style type="text/css"></style></defs><path d="M940.98 398.399l0 148.655 35.837 41.021-68.8 59.638-62.874-59.638 37.817-42.102 0-122.98C679.679 505.918 624.642 531.686 579.568 551.81c-45.083 20.122-77.553 20.02-122.269 3.35-44.711-16.665-247.436-93.522-353.125-143.569-70.533-33.397-75.071-54.563 1.21-82.902 99.547-37.416 253.961-97.336 341.178-130.036 51.633-20.671 78.927-31.951 126.317-8.382 84.618 34.571 267.846 106.352 363.985 145.62C1020.562 372.033 964.294 383.917 940.98 398.399L940.98 398.399 940.98 398.399zM589.37 613.476c49.158-20.073 115.441-53.256 187.712-83.888l0 245.949c0 0-93.474 98.378-257.791 98.378-176.956 0-272.543-98.378-272.543-98.378L246.748 545.974c55.783 22.481 118.42 41.825 194.228 67.503C487.698 629.916 546.985 635.599 589.37 613.476L589.37 613.476 589.37 613.476zM589.37 613.476" p-id="14080"></path></svg>