<?xml version="1.0" standalone="no"?><!DOCTYPE svg PUBLIC "-//W3C//DTD SVG 1.1//EN" "http://www.w3.org/Graphics/SVG/1.1/DTD/svg11.dtd"><svg t="1580799632634" class="icon" viewBox="0 0 1024 1024" version="1.1" xmlns="http://www.w3.org/2000/svg" p-id="8226" xmlns:xlink="http://www.w3.org/1999/xlink" width="200" height="200"><defs><style type="text/css"></style></defs><path d="M136.661391 0.005873A49.091411 49.091411 0 0 0 100.520475 15.064588a49.091411 49.091411 0 0 0-15.058715 36.140916v921.593359A49.091411 49.091411 0 0 0 100.520475 1008.939779a50.597282 50.597282 0 0 0 36.140916 15.058715h750.676944a49.241998 49.241998 0 0 0 35.839741-15.058715 50.597282 50.597282 0 0 0 15.058715-35.839742V290.187311L648.507115 0.005873z" fill="#8095FF" p-id="8227"></path><path d="M938.537966 290.036724H699.556158a52.554915 52.554915 0 0 1-51.199631-51.199631V0.005873z" fill="#CCD5FF" p-id="8228"></path><path d="M494.757634 553.714824a36.743265 36.743265 0 0 1 34.183283 0l197.269167 114.295647a16.564587 16.564587 0 0 1 0 29.06332l-198.925625 115.19917a36.743265 36.743265 0 0 1-34.183283 0L296.28377 697.977314a16.715174 16.715174 0 0 1 0-29.06332z" fill="#C0CAFF" p-id="8229"></path><path d="M494.757634 382.798409a35.689155 35.689155 0 0 1 34.183283 0L726.210084 496.943468a16.263412 16.263412 0 0 1 8.583468 15.058716 16.112825 16.112825 0 0 1-8.583468 15.058715l-198.925625 114.145059a35.689155 35.689155 0 0 1-34.183283 0L296.28377 527.060899a16.413999 16.413999 0 0 1-8.43288-15.058715 16.263412 16.263412 0 0 1 8.43288-15.058716z" fill="#FFFFFF" p-id="8230"></path></svg>