<?xml version="1.0" standalone="no"?><!DOCTYPE svg PUBLIC "-//W3C//DTD SVG 1.1//EN" "http://www.w3.org/Graphics/SVG/1.1/DTD/svg11.dtd"><svg t="1580805306123" class="icon" viewBox="0 0 1024 1024" version="1.1" xmlns="http://www.w3.org/2000/svg" p-id="21917" xmlns:xlink="http://www.w3.org/1999/xlink" width="200" height="200"><defs><style type="text/css"></style></defs><path d="M913.6 623.2s17.6-151.2-76.8-191.2h-2.4c-10.4 0-25.6-4-40.8 8.8L534.4 692c8 20.8 4.8 36.8-10.4 52l-8 5.6-240.8 240-8 7.2c-8 8-20.8 12.8-33.6 12.8-61.6 0-148.8-102.4-102.4-148.8l8-8 240.8-240.8 8-8c10.4-10.4 20.8-12.8 33.6-12.8 8 0 15.2 2.4 23.2 2.4l230.4-230.4c10.4-15.2 36-43.2 17.6-84.8-17.6-30.4-53.6-40.8-72-46.4-23.2 0-46.4-25.6-66.4-46.4l-8-8c-28-28-36-30.4-2.4-61.6L632 29.6c15.2-15.2 23.2-20.8 30.4-20.8 10.4 0 17.6 10.4 30.4 23.2l8 8c17.6 17.6 40.8 38.4 43.2 59.2 2.4 4.8 8 28 28 53.6 8 10.4 36 0 43.2 10.4L957.6 304c108 108 17.6 369.6 17.6 369.6l-61.6-50.4zM536.8 404L419.2 522.4c-8 0-12.8 0-20.8 2.4L313.6 440c-23.2 10.4-46.4 17.6-66.4 17.6C128.8 457.6 16 344.8 16 227.2l20.8-20.8C134.4 304 113.6 293.6 175.2 293.6c46.4 0 123.2-74.4 123.2-123.2 0-59.2 8-43.2-87.2-138.4L232 12c117.6-2.4 230.4 112.8 230.4 230.4 0 20.8-8 43.2-17.6 69.6l92 92z m340.8 418.4c28 0 51.2 23.2 51.2 51.2 0 28-23.2 51.2-51.2 51.2s-51.2-23.2-51.2-51.2c0-28.8 23.2-51.2 51.2-51.2zM603.2 729.6L760 886.4l84.8 112.8 43.2 12.8 123.2-123.2-12.8-46.4L888 760.8 721.6 593.6 603.2 712c3.2 4.8 3.2 12.8 0 17.6z" p-id="21918" fill="#007acc"></path></svg>