<?xml version="1.0" encoding="UTF-8" standalone="no"?><!DOCTYPE svg PUBLIC "-//W3C//DTD SVG 1.1//EN" "http://www.w3.org/Graphics/SVG/1.1/DTD/svg11.dtd"><svg width="100%" height="100%" viewBox="36 36 88 88" version="1.1" xmlns="http://www.w3.org/2000/svg" xmlns:xlink="http://www.w3.org/1999/xlink" xml:space="preserve" style="fill-rule:evenodd;clip-rule:evenodd;stroke-linejoin:round;stroke-miterlimit:1.41421;"><clipPath id="_clip1"><path d="M52.416,36.478c-8.766,0 -15.938,7.172 -15.938,15.938l0,55.298c0,8.767 7.172,15.939 15.938,15.939l55.299,0c8.766,0 15.937,-7.172 15.937,-15.939l0,-55.298c0,-8.766 -7.171,-15.938 -15.937,-15.938l-55.299,0ZM65.459,85.086l-0.463,-0.677l-0.457,-0.672c0.156,-0.865 3.199,-7.515 6.762,-14.779c3.563,-7.264 7.064,-13.821 7.782,-14.571l0.981,0l0.979,-0.006c0.719,0.755 4.221,7.315 7.783,14.578c3.561,7.264 6.58,13.498 6.709,13.854l0,0.335c0,0.438 -0.134,0.876 -0.4,1.261l-0.463,0.677c-0.909,0.229 -7.481,0.415 -14.607,0.415c-7.126,0 -13.698,-0.186 -14.606,-0.415ZM91.432,105.585l-0.18,-0.262l-0.178,-0.26c0.062,-0.336 1.242,-2.912 2.623,-5.727c1.38,-2.815 2.736,-5.357 3.013,-5.649l0.76,0c0.279,0.292 1.637,2.834 3.016,5.649c1.381,2.815 2.55,5.23 2.6,5.369l0,0.129c0,0.17 -0.053,0.341 -0.155,0.489l-0.179,0.262c-0.352,0.088 -2.899,0.16 -5.66,0.16c-2.763,0 -5.309,-0.072 -5.66,-0.16ZM74.407,105.585l-0.181,-0.262l-0.178,-0.26c0.061,-0.336 1.241,-2.912 2.623,-5.727c1.379,-2.815 2.736,-5.357 3.014,-5.649l0.759,0c0.278,0.292 1.636,2.834 3.016,5.649c1.38,2.815 2.55,5.23 2.599,5.369l0,0.129c0,0.17 -0.051,0.341 -0.154,0.489l-0.179,0.262c-0.352,0.088 -2.9,0.16 -5.661,0.16c-2.761,0 -5.307,-0.072 -5.658,-0.16ZM57.38,105.585l-0.18,-0.262l-0.176,-0.26c0.059,-0.336 1.238,-2.912 2.619,-5.727c1.381,-2.815 2.739,-5.357 3.016,-5.649l0.759,0c0.28,0.292 1.636,2.834 3.016,5.649c1.38,2.815 2.55,5.23 2.599,5.369l0,0.129c0,0.17 -0.052,0.341 -0.154,0.489l-0.18,0.262c-0.351,0.088 -2.899,0.16 -5.66,0.16c-2.761,0 -5.308,-0.072 -5.659,-0.16Z"/></clipPath><g clip-path="url(#_clip1)"><path d="M79.288,0l80.842,79.288l-79.289,80.842l-80.841,-79.288l79.288,-80.842Z" style="fill:url(#_Linear2);fill-rule:nonzero;"/></g><defs><linearGradient id="_Linear2" x1="0" y1="0" x2="1" y2="0" gradientUnits="userSpaceOnUse" gradientTransform="matrix(88.2456,86.5496,-86.5496,88.2456,47.1714,47.8033)"><stop offset="0%" style="stop-color:#0098dc;stop-opacity:1"/><stop offset="100%" style="stop-color:#ffe0a3;stop-opacity:1"/></linearGradient></defs></svg>
